<?xml version="1.0" encoding="utf-8"?>
<!-- Generator: Adobe Illustrator 16.0.0, SVG Export Plug-In . SVG Version: 6.00 Build 0)  -->
<!DOCTYPE svg PUBLIC "-//W3C//DTD SVG 1.1//EN" "http://www.w3.org/Graphics/SVG/1.1/DTD/svg11.dtd">
<svg version="1.1" id="Layer_1" xmlns="http://www.w3.org/2000/svg" xmlns:xlink="http://www.w3.org/1999/xlink" x="0px" y="0px"
	 width="50px" height="50px" viewBox="0 0 50 50" enable-background="new 0 0 50 50" xml:space="preserve">
<g>
	<path d="M42.265,1.5H7.735C4.307,1.5,1.5,4.306,1.5,7.735v34.53c0,3.429,2.807,6.235,6.235,6.235h34.529
		c3.429,0,6.235-2.806,6.235-6.235V7.735C48.5,4.306,45.693,1.5,42.265,1.5z M45.211,38.812c0,3.528-2.872,6.398-6.399,6.398H11.188
		c-3.527,0-6.399-2.87-6.399-6.398V11.188c0-3.528,2.872-6.398,6.399-6.398h27.623c3.527,0,6.399,2.87,6.399,6.398V38.812z"/>
	<circle cx="32.006" cy="32.008" r="3.172"/>
	<path d="M38.812,7.61H11.188c-1.973,0-3.578,1.605-3.578,3.578v27.623c0,1.973,1.605,3.578,3.578,3.578h27.623
		c1.973,0,3.578-1.605,3.578-3.578V11.188C42.39,9.215,40.784,7.61,38.812,7.61z M37.62,33.205l-4.415,4.418
		c-1.085,1.086-3.041,1.301-4.342,0.479l-6.051-3.828c-1.303-0.825-1.631-2.517-0.725-3.767l1.27-1.497L21.2,26.853l0.095-2.07
		l-1.32-1.318l0.412-1.229l-1.09-1.09l-1.035,0.604l-0.707-0.707l0.414-1.228l-1.09-1.091l-1.036,0.606l-4.445-4.443l0.753-2.736
		l2.734-0.751l8.907,8.907l2.071-0.093l3.147,3.146l1.497-1.271c1.249-0.908,2.94-0.578,3.767,0.724l3.826,6.051
		C38.925,30.166,38.71,32.117,37.62,33.205z"/>
</g>
</svg>
