<?xml version="1.0" encoding="iso-8859-1"?>
<!-- Generator: Adobe Illustrator 17.0.2, SVG Export Plug-In . SVG Version: 6.00 Build 0)  -->
<!DOCTYPE svg PUBLIC "-//W3C//DTD SVG 1.1//EN" "http://www.w3.org/Graphics/SVG/1.1/DTD/svg11.dtd">
<svg version="1.1" id="Capa_1" xmlns="http://www.w3.org/2000/svg" xmlns:xlink="http://www.w3.org/1999/xlink" x="0px" y="0px"
	 width="64px" height="64px" viewBox="0 0 64 64" style="enable-background:new 0 0 64 64;" xml:space="preserve">
<g>
	<path d="M15.498,51.831h31.975c1.997,0,3.62-1.624,3.62-3.62V16.235c0-1.996-1.623-3.62-3.62-3.62H15.498
		c-1.997,0-3.621,1.624-3.621,3.62V48.21C11.877,50.206,13.501,51.831,15.498,51.831z M19.72,30.851h3.455
		c0.111-0.677,0.295-1.329,0.557-1.941l-3.023-1.746c-0.563-0.325-0.755-1.044-0.431-1.607c0.325-0.563,1.042-0.756,1.608-0.431
		l3.067,1.771c0.417-0.511,0.898-0.966,1.422-1.368l-1.791-3.102c-0.325-0.563-0.132-1.282,0.431-1.607
		c0.562-0.326,1.282-0.133,1.607,0.431l1.803,3.122c0.598-0.233,1.228-0.398,1.884-0.49v-3.621c0-0.649,0.526-1.176,1.176-1.176
		s1.176,0.527,1.176,1.176v3.621c0.656,0.092,1.286,0.257,1.884,0.49l1.803-3.122c0.325-0.563,1.043-0.757,1.607-0.431
		c0.563,0.325,0.755,1.044,0.431,1.607l-1.79,3.102c0.524,0.401,1.005,0.857,1.422,1.368l3.067-1.771
		c0.562-0.325,1.282-0.132,1.607,0.431c0.325,0.563,0.132,1.282-0.431,1.607l-3.023,1.746c0.262,0.612,0.445,1.264,0.557,1.941
		h3.455c0.65,0,1.177,0.527,1.177,1.176c0,0.65-0.527,1.177-1.177,1.177h-3.395c-0.082,0.701-0.252,1.373-0.495,2.011l2.902,1.675
		c0.563,0.325,0.755,1.044,0.431,1.607c-0.218,0.377-0.614,0.588-1.02,0.588c-0.2,0-0.402-0.051-0.587-0.157l-2.862-1.653
		c-0.426,0.567-0.917,1.081-1.469,1.523l1.632,2.828c0.325,0.563,0.132,1.282-0.431,1.607c-0.185,0.107-0.388,0.158-0.587,0.158
		c-0.407,0-0.802-0.211-1.02-0.588l-1.617-2.799c-0.651,0.272-1.348,0.458-2.07,0.559v3.229c0,0.649-0.526,1.176-1.176,1.176
		s-1.176-0.527-1.176-1.176v-3.229c-0.723-0.101-1.419-0.286-2.07-0.559l-1.617,2.799c-0.218,0.378-0.613,0.588-1.02,0.588
		c-0.2,0-0.402-0.051-0.587-0.158c-0.563-0.325-0.755-1.044-0.431-1.607l1.632-2.828c-0.552-0.443-1.043-0.956-1.469-1.523
		l-2.862,1.653c-0.185,0.106-0.388,0.157-0.587,0.157c-0.406,0-0.802-0.211-1.02-0.588c-0.325-0.563-0.132-1.282,0.431-1.607
		l2.902-1.675c-0.243-0.638-0.414-1.31-0.495-2.011H19.72c-0.65,0-1.177-0.527-1.177-1.177C18.544,31.377,19.07,30.851,19.72,30.851
		z"/>
	<circle cx="31.485" cy="32.027" r="5.294"/>
	<path d="M5.995,51.831c0,3.249,2.634,5.882,5.882,5.882h2.99v0.662c0,0.934,1.547,1.691,3.456,1.691
		c1.909,0,3.456-0.757,3.456-1.691c0-0.235,0-0.458,0-0.662H40.97v0.662c0,0.934,1.547,1.691,3.456,1.691
		c1.909,0,3.456-0.757,3.456-1.691c0-0.235,0-0.458,0-0.662h3.211c3.249,0,5.883-2.634,5.883-5.882V12.615
		c0-3.248-2.634-5.882-5.883-5.882H11.877c-3.248,0-5.882,2.634-5.882,5.882V51.831z M8.396,36.144c0-0.632,0.502-1.14,1.128-1.167
		v-6.294c-0.626-0.027-1.128-0.534-1.128-1.167V19.87c0-0.632,0.502-1.14,1.128-1.167v-2.468c0-3.294,2.68-5.973,5.973-5.973h31.975
		c3.293,0,5.973,2.68,5.973,5.973V48.21c0,3.294-2.68,5.973-5.973,5.973H15.498c-3.294,0-5.973-2.68-5.973-5.973v-3.252
		c-0.626-0.027-1.128-0.534-1.128-1.167V36.144z"/>
</g>
</svg>
